<svg width="282" height="282" viewBox="0 0 282 282" fill="none" xmlns="http://www.w3.org/2000/svg">
<g clip-path="url(#clip0_1214_11)">
<path d="M141 282C218.872 282 282 218.872 282 141C282 63.1279 218.872 0 141 0C63.1279 0 0 63.1279 0 141C0 218.872 63.1279 282 141 282Z" fill="#FF0066"/>
<path d="M168.569 88.2373C156.433 88.2373 145.953 95.199 140.687 105.354C135.42 95.199 124.94 88.2373 112.804 88.2373C95.4075 88.2373 81.3119 102.527 81.3119 120.115C81.3119 137.702 92.1003 153.824 106.041 167.067C119.983 180.31 140.687 192.924 140.687 192.924C140.687 192.924 160.72 180.519 175.332 167.067C190.918 152.725 200.061 137.754 200.061 120.115C200.061 102.475 185.966 88.2373 168.569 88.2373Z" fill="black"/>
<path d="M76.9396 231C63.349 231 53.2819 227.5 46.7383 221.5C40.1946 215 36.6711 205 36.6711 191V166.5C36.6711 160 35.1611 155 32.1409 151.5C29.1208 148 24.0872 146.5 17.0403 146.5H11V128H17.0403C20.5638 128 23.5839 127.5 26.1007 127C28.6174 126 30.6309 125 32.1409 123.5C33.651 122 34.6577 120 35.6644 117.5C36.1678 115 36.6711 112 36.6711 109V92C36.6711 85.5 37.6778 79.5 39.1879 74.5C40.698 69.5 43.2148 65 46.2349 62C49.7584 58.5 53.7852 56 58.8188 54.5C64.3557 53 70.396 52 77.4429 52H85.4966V70H79.4564C76.4362 70 73.4161 70.5 70.8993 71C68.3826 72 66.3691 73 64.3557 74.5C62.3423 76 61.3356 78.5 60.3289 81C59.3221 83.5 58.8188 87 58.8188 91V108C58.8188 112.5 58.3154 117 57.8121 120.5C56.8054 124 55.7987 126.5 54.2886 129C52.7785 131.5 50.7651 133 47.745 134.5C45.2282 135.5 42.208 136.5 38.6846 137C45.7315 138 50.7651 140.5 54.2886 145C57.8121 149.5 59.3221 156.5 59.3221 166V190.5C59.3221 194.5 59.8255 198 60.8322 201C61.8389 203.5 63.349 206 64.8591 207.5C66.8725 209 68.8859 210.5 71.4027 211C73.9195 211.5 76.9396 212 79.9597 212H86V230.5H76.9396V231Z" fill="black"/>
<path d="M204.06 231C217.651 231 227.718 227.5 234.262 221.5C240.805 215 244.329 205 244.329 191V166.5C244.329 160 245.839 155 248.859 151.5C251.879 148 256.913 146.5 263.96 146.5H270V128H263.96C260.436 128 257.416 127.5 254.899 127C252.383 126 250.369 125 248.859 123.5C247.349 122 246.342 120 245.336 117.5C244.832 115 244.329 112 244.329 109V92C244.329 85.5 243.322 79.5 241.812 74.5C240.302 69.5 237.785 65 234.765 62C231.242 58.5 227.215 56 222.181 54.5C216.644 53 210.604 52 203.557 52H195.503V70H201.544C204.564 70 207.584 70.5 210.101 71C212.617 72 214.631 73 216.644 74.5C218.658 76 219.664 78.5 220.671 81C221.678 83.5 222.181 87 222.181 91V108C222.181 112.5 222.685 117 223.188 120.5C224.195 124 225.201 126.5 226.711 129C228.221 131.5 230.235 133 233.255 134.5C235.772 135.5 238.792 136.5 242.315 137C235.268 138 230.235 140.5 226.711 145C223.188 149.5 221.678 156.5 221.678 166V190.5C221.678 194.5 221.174 198 220.168 201C219.161 203.5 217.651 206 216.141 207.5C214.128 209 212.114 210.5 209.597 211C207.081 211.5 204.06 212 201.04 212H195V230.5H204.06V231Z" fill="black"/>
</g>
<defs>
<clipPath id="clip0_1214_11">
<rect width="282" height="282" fill="white"/>
</clipPath>
</defs>
</svg>
